<svg id="Camada_1" data-name="Camada 1" xmlns="http://www.w3.org/2000/svg" viewBox="0 0 810.48 412.23"><defs><style>.cls-1{fill:#66a0f8;}</style></defs><path class="cls-1" d="M468.53,179.55c-1.83,4-5.49,15.85-5.49,20.73,0,4,8.85,7.63,14.95,7.63,2.44,0,4.57-.61,5.18-2.14,2.14-4.57,6.41-15.55,7.93-18.29a2.92,2.92,0,0,0,.61-2.14c0-4.57-9.15-9.45-16.16-9.45C472.19,175.89,469.45,176.8,468.53,179.55Z"/><path class="cls-1" d="M671.34,219.5a20.59,20.59,0,0,0-11.28,3.66C651.82,229,643,239,636.57,247.25c-5.18,7-10.37,14.34-14.94,21.35.91-2.75,10.67-32.63,13.11-38.43l.31-1.52c0-4.58-10.07-8.85-17.39-8.85-3.66,0-6.4.92-7.32,3.36-3.25,8.59-8.62,25-13.55,42-9.33,20-27.19,55.34-36.77,55.63-1.52,0-1.83-2.74-1.83-7,.61-22,20.44-74.42,24.4-84.18l.31-1.22c0-4.88-9.46-9.15-16.47-9.15-3.66,0-6.41.92-7.93,3.36L556.36,228c-3.66-5.8-10.06-8.54-18-8.54h-.3c-22.53,0-40.46,23.93-48.12,48.62-9.36,20.32-25.72,52.36-34.84,52.63-1.83,0-2.44-1.83-2.44-5.18,0-18.61,21.35-79.3,23.79-86l.31-1.22c0-4.57-9.46-9.15-16.78-9.15-3.35,0-6.4,1.22-7.62,3.66-3.34,8.23-9.59,24.91-14.63,42.2-6,12-12.82,18.78-20.13,22.15A37,37,0,0,1,402.66,290l-5.79-.31c2.13-12.81,30.5-93.63,34.76-103.08l.31-.91c0-4.27-10.06-9.46-18-9.46-3.66,0-6.71.92-8.24,3.36-6.32,11.2-18.86,47.31-30.75,87.15-5.29,11.3-13,27-20.48,38.5-5.8,8.84-11.29,15.25-15.25,15.55-1.83,0-2.14-2.74-2.14-7,.61-22,20.44-74.42,24.4-84.18l.31-1.22c0-4.88-9.46-9.15-16.78-9.15-3.66,0-6.71,1.22-7.62,3.66a321.53,321.53,0,0,0-12.2,33.25C317,278.36,310,293.61,303.55,303.67c-7.93,12.81-13.73,17.08-17.08,17.08-1.53,0-1.83-2.74-1.83-7,.61-22,20.43-74.42,24.39-84.18l.31-1.22c0-4.57-9.45-9.15-16.77-9.15-3.66,0-6.41,1.22-7.63,3.66-3.33,7.11-10.06,25.06-15.24,42.54-6.21,13.07-15.69,32.91-24.4,45-1.83,2.44-7.63,10.37-11.59,10.37h-.61c-.61,0-.61-1.22-.61-3.05l.3-6.1c3.36-31.41,35.38-115.28,39-125l.31-.91c0-4.27-10.07-9.46-18-9.46-3.66,0-6.71,1.22-8.23,3.66-4.88,11.29-36.3,89.36-36.3,126.57,0,5.18.61,9.76,2.14,13.11,3.05,6.41,10.06,7.32,17.38,7.32h4.27c6.41-.3,13.12-8.23,16.47-13.11a170.94,170.94,0,0,0,13.37-21.54A91.66,91.66,0,0,0,261.76,307c0,5.18.61,9.45,2.44,12.5,3.36,6.41,11.29,7.32,18.91,7.32h4c7-.3,14.64-9.15,21-19.52a83.22,83.22,0,0,0,7-12.2,84.49,84.49,0,0,0-.91,11.9c0,5.18.61,9.45,2.44,12.5,3.35,6.41,11.28,7.32,18.91,7.32h4c5.8-.3,12.51-7.32,19.22-17.08,2.56-3.84,5.1-8.1,7.55-12.51-6.16,23.14-13.66,54.42-13.66,68.32v.62c0,3.35.31,6.09,1.22,7.62,4,7,11.9,10.06,19.52,10.06,18.61,0,30.2-31.71,33.55-46.66,1.22-6.4,2.44-12.81,2.44-18.91,0-8.23-2.13-16.16-7.93-22.26,6.71,0,12.81-.92,18-3.36a36.62,36.62,0,0,0,13.7-9.84c-.1.43-.2.87-.29,1.3-1.52,7.93-2.74,15.56-2.74,22,0,5.49.91,10.37,2.74,13.42,3.35,6.41,11.29,7.32,18.91,7.32h4c9.38-.41,20.79-18.38,30.25-36.73,0,.87-.06,1.73-.06,2.57,0,15.86,6.1,28.06,20.74,28.37h.61c11.9,0,21.66-11.9,28.67-24.1-.3,3.66-.61,6.71-.61,9.76,0,5.19.61,9.76,2.44,12.81,3.35,6.41,11.28,7.32,18.91,7.32h3.66c8.81-.37,19.36-15.63,28.51-32.36-2.55,10.62-4.11,19.55-4.11,24.13,0,7,10.06,8.84,17.68,8.84h1.83c1.83-.3,3.36-.91,3.36-3,.3-7,3-19.21,7-32.94a358.42,358.42,0,0,1,26.84-40.56c3.36-4.27,11-13.42,13.73-15.86.91-.91,2.13-1.83,3.05-1.83.61,0,1.22.61,1.22,2.14,0,3.35-17.08,51.54-18.3,72v2.14c0,16.16,8.54,18,20.43,18h5.8c1.22,0,2.13-1.52,2.13-3,0-1.22-.61-2.74-1.83-3.05-.91-.61-1.22-2.74-1.22-5.79,0-17.69,14.64-58.25,18.91-79.3l.3-3.66C685.67,224.38,679,219.5,671.34,219.5ZM403.58,317.7c0,5.8-1.53,12.2-2.75,18-4.27,19.21-14.33,39-24.09,41.78a6.69,6.69,0,0,1-.31-2.75c0-11.28,11.29-50.32,17.69-77.16C401.44,302.45,403.58,309.77,403.58,317.7Zm140-53.67c-3,7.62-19.52,39.64-28.67,40-3.05,0-4.58-3.05-4.58-8.24,0-18,17.39-59.47,31.11-59.47l1.83.31c3.35.91,4.57,4.27,4.57,8.54C547.82,251.83,545.08,260.06,543.56,264Z"/><path class="cls-1" d="M618.78,133.1,630.41,116,622,94.4c-50.76-27.89-140.2-66.78-255.29-66C195.56,29.46,74.4,117.57,30.53,153.13A607.72,607.72,0,0,1,258.6,91.4a434.47,434.47,0,0,0-98.52,64.73C97.61,210.74,64.49,271.57,47.63,309.7c30-36.84,133.3-154.3,311.37-190C471.88,97.1,566.18,117.08,618.78,133.1Z"/><polygon class="cls-1" points="730.24 100.73 728.38 41.66 682.61 79.07 625.86 62.58 638.9 96.07 647.29 117.67 635.67 134.78 614.07 166.55 673.08 163.18 709.31 209.9 724.35 152.72 779.96 132.69 730.24 100.73"/></svg>